<?xml version="1.0" encoding="utf-8"?>
<!-- Generator: Avocode 2.4.5 - http://avocode.com -->
<svg height="612" width="553" xmlns:xlink="http://www.w3.org/1999/xlink" xmlns="http://www.w3.org/2000/svg" viewBox="0 0 553 612">
    <path fill="#12d09b" fill-rule="evenodd" d="M 460.78 432.61 C 437.46 432.61 416.57 441.76 400.66 456.19 C 400.66 456.19 181.58 328.75 181.58 328.75 C 183.16 321.68 184.39 314.57 184.39 307.22 C 184.39 299.88 183.14 292.79 181.58 285.7 C 181.58 285.7 398.19 159.45 398.19 159.45 C 414.71 174.75 436.56 184.31 460.78 184.31 C 511.85 184.31 553 143.23 553 92.16 C 553 41.18 511.82 0 460.78 0 C 409.82 0 368.64 41.18 368.64 92.13 C 368.64 99.58 369.89 106.56 371.45 113.65 C 371.45 113.65 154.84 240.01 154.84 240.01 C 138.29 224.63 116.47 215.09 92.22 215.09 C 41.15 215.09 0 256.25 0 307.22 C 0 358.2 41.15 399.38 92.22 399.38 C 116.44 399.38 138.29 389.82 154.81 374.52 C 154.81 374.52 373.51 502.25 373.51 502.25 C 372.01 508.75 371.06 515.53 371.06 522.29 C 371.06 571.76 411.37 612 460.76 612 C 510.19 612 550.53 571.79 550.53 522.29 C 550.53 472.8 510.22 432.61 460.78 432.61 Z" />
</svg>