<?xml version="1.0" encoding="utf-8"?>
<!-- Generator: Avocode 2.4.5 - http://avocode.com -->
<svg height="146" width="136" xmlns:xlink="http://www.w3.org/1999/xlink" xmlns="http://www.w3.org/2000/svg" viewBox="0 0 136 146">
    <path fill="#12d09b" fill-rule="evenodd" d="M 133.19 24.45 C 131.13 22.39 128.68 21.36 125.86 21.36 C 125.86 21.36 115.43 21.36 115.43 21.36 C 115.43 21.36 115.43 13.54 115.43 13.54 C 115.43 9.95 114.16 6.88 111.6 4.33 C 109.05 1.78 105.98 0.5 102.4 0.5 C 102.4 0.5 97.18 0.5 97.18 0.5 C 93.6 0.5 90.53 1.78 87.98 4.33 C 85.42 6.88 84.15 9.95 84.15 13.54 C 84.15 13.54 84.15 21.36 84.15 21.36 C 84.15 21.36 52.86 21.36 52.86 21.36 C 52.86 21.36 52.86 13.54 52.86 13.54 C 52.86 9.95 51.58 6.88 49.03 4.33 C 46.48 1.78 43.41 0.5 39.82 0.5 C 39.82 0.5 34.61 0.5 34.61 0.5 C 31.02 0.5 27.96 1.78 25.4 4.33 C 22.85 6.88 21.57 9.95 21.57 13.54 C 21.57 13.54 21.57 21.36 21.57 21.36 C 21.57 21.36 11.14 21.36 11.14 21.36 C 8.32 21.36 5.87 22.39 3.81 24.45 C 1.75 26.52 0.71 28.96 0.71 31.79 C 0.71 31.79 0.71 136.07 0.71 136.07 C 0.71 138.9 1.75 141.34 3.81 143.4 C 5.87 145.47 8.32 146.5 11.14 146.5 C 11.14 146.5 125.86 146.5 125.86 146.5 C 128.68 146.5 131.13 145.47 133.19 143.4 C 135.25 141.34 136.29 138.9 136.29 136.07 C 136.29 136.07 136.29 31.79 136.29 31.79 C 136.29 28.96 135.25 26.52 133.19 24.45 Z M 94.57 13.54 C 94.57 12.78 94.82 12.15 95.31 11.66 C 95.79 11.17 96.42 10.93 97.18 10.93 C 97.18 10.93 102.39 10.93 102.39 10.93 C 103.16 10.93 103.78 11.17 104.27 11.66 C 104.76 12.15 105 12.78 105 13.54 C 105 13.54 105 37 105 37 C 105 37.76 104.76 38.39 104.27 38.87 C 103.78 39.36 103.16 39.61 102.39 39.61 C 102.39 39.61 97.18 39.61 97.18 39.61 C 96.42 39.61 95.79 39.36 95.31 38.87 C 94.82 38.39 94.57 37.76 94.57 37 C 94.57 37 94.57 13.54 94.57 13.54 Z M 32 13.54 C 32 12.78 32.25 12.15 32.73 11.66 C 33.22 11.17 33.85 10.93 34.61 10.93 C 34.61 10.93 39.82 10.93 39.82 10.93 C 40.58 10.93 41.21 11.17 41.7 11.66 C 42.19 12.15 42.43 12.78 42.43 13.54 C 42.43 13.54 42.43 37 42.43 37 C 42.43 37.76 42.19 38.39 41.7 38.87 C 41.21 39.36 40.58 39.61 39.82 39.61 C 39.82 39.61 34.61 39.61 34.61 39.61 C 33.85 39.61 33.22 39.36 32.73 38.87 C 32.25 38.39 32 37.76 32 37 C 32 37 32 13.54 32 13.54 Z M 125.86 136.07 C 125.86 136.07 11.14 136.07 11.14 136.07 C 11.14 136.07 11.14 52.64 11.14 52.64 C 11.14 52.64 125.86 52.64 125.86 52.64 C 125.86 52.64 125.86 136.07 125.86 136.07 Z" />
</svg>