<?xml version="1.0" encoding="utf-8"?>
<!-- Generator: Adobe Illustrator 18.1.1, SVG Export Plug-In . SVG Version: 6.00 Build 0)  -->
<svg version="1.1" id="Слой_1" xmlns="http://www.w3.org/2000/svg" xmlns:xlink="http://www.w3.org/1999/xlink" x="0px" y="0px"
	 viewBox="0 0 30.5 26.4" enable-background="new 0 0 30.5 26.4" xml:space="preserve">
<g>
	<path fill="#bbbbbb" d="M27.7,15.1L26.5,16l1.2,3.9c0.1-0.1,0.2-0.2,0.3-0.4l2.4-7.8c0.1-0.2,0-0.3,0-0.5l-3.2,2.6L27.7,15.1z M27.7,15.1"/>
	<path fill="#bbbbbb" d="M25.5,9.6c-0.1,0.1-0.2,0.2-0.3,0.4l-2.4,7.8c-0.1,0.2,0,0.3,0,0.5l4.3-3.5L25.5,9.6z M25.5,9.6"/>
	<path fill="#bbbbbb" d="M23.1,18.7l4.3,1.3l-1.2-3.8L23.1,18.7z M23.1,18.7"/>
	<path fill="#bbbbbb" d="M27.1,13.4l3.1-2.5l-4.3-1.3L27.1,13.4z M27.1,13.4"/>
</g>
<g>
	<g>
		<defs>
			<rect id="SVGID_1_" x="0" y="0" width="24.5" height="26.4"/>
		</defs>
		<clipPath id="SVGID_2_">
			<use xlink:href="#SVGID_1_"  overflow="visible"/>
		</clipPath>
		<path fill="#bbbbbb" clip-path="url(#SVGID_2_)" d="M24.3,13.9c-0.2-0.1-0.6-0.3-0.8-0.4c0,0-0.1-0.1-0.1-0.2c-0.2-0.5-0.8-1.6-1.9-1.6
			c-0.2,0-0.4,0-0.5,0.1c-1,0.3-1.5,1-1.9,1.6c-0.2,0.3-0.4,0.5-0.6,0.6c-0.1,0-0.1,0-0.2,0c-0.2,0-0.3-0.1-0.3-0.2
			c-0.1-0.5-0.1-1.2,0-1.9c0-1.1,0.1-2.4-0.3-3.4c-0.6-1.6-1.9-3-3-4c-0.3-0.3-0.5-0.5-0.7-0.8c-0.1-0.1-0.2-0.2-0.3-0.3
			c-0.1-0.1-0.2-0.3-0.3-0.4c-0.4-0.6-0.6-1.2-0.8-1.9c0-0.1,0-0.1-0.1-0.2c0-0.1-0.1-0.2-0.1-0.3C12.4,0.3,12.2,0,12,0
			c0,0-0.1,0-0.1,0c-0.4,0.1-0.4,0.9-0.5,1.6c0,0.4-0.1,0.7-0.1,0.9C11.2,2.7,11,2.9,10.9,3c-0.2,0.2-0.3,0.3-0.4,0.6
			c-0.1,0.3,0,0.5,0.1,0.7c0.1,0.1,0.1,0.3,0.1,0.5c0,0.2-0.1,0.4-0.3,0.5c-0.1,0.1-0.3,0.3-0.3,0.6c0,0.3,0.1,0.5,0.3,0.7
			c0.1,0.2,0.2,0.3,0.2,0.5c0,0.2-0.1,0.3-0.2,0.4c-0.2,0.1-0.4,0.3-0.3,0.8c0,0.3,0.2,0.4,0.4,0.6c0.2,0.1,0.3,0.2,0.2,0.4
			c0,0.1,0,0.2-0.1,0.4c-0.1,0.3-0.2,0.6,0.1,1c0.1,0.1,0.4,0.4,0.7,0.7c-0.9-0.4-2.2-1-3.7-1.2C5.4,9.7,3.2,8.7,2,8.2
			C1.4,8,1.2,7.9,1.1,7.9C1,7.9,1,7.9,1,8C1,8,1,8.1,1.2,8.2l0.4,0.3C2,9,2.4,9.3,2.6,9.5c-0.1,0-0.2-0.1-0.3-0.1
			c-0.1,0-0.1,0-0.2,0c0,0,0,0.1,0,0.1c0,0.5,1.3,2.7,3,4.9c1.3,1.6,3.7,4.2,5.7,4.2c0.1,0,0.2,0,0.4,0c-0.8,0.9-3.8,3.2-6.4,4.3
			c-3.2,1.4-4.6,2.1-4.7,2.6c0,0.1,0,0.2,0.1,0.3C0.3,25.9,0.4,26,0.5,26c0.1,0,0.2,0,0.3-0.1c0.1,0,0.2-0.1,0.3-0.1
			c0.1,0,0.2,0,0.4,0.1c0.3,0.2,0.7,0.5,1.3,0.5c0.6,0,1.2-0.3,1.9-0.8c0.1-0.1,0.3-0.1,0.4-0.1c0.1,0,0.2,0,0.2,0
			c0.1,0,0.2,0,0.3,0c0.2,0,0.4-0.1,0.7-0.3c1.7-1.4,3.7-1.7,5.7-1.9c2.4-0.3,4.8-0.7,7.5-2.8c2.3-1.8,2.7-3.4,3-4.4
			c0-0.1,0.1-0.2,0.1-0.3c0.3-1,0.5-1.2,0.7-1.3c0.1-0.1,0.5-0.2,0.8-0.3c0.2-0.1,0.4-0.2,0.5-0.2c0.1,0,0.1-0.1,0.1-0.1
			C24.5,14,24.5,13.9,24.3,13.9L24.3,13.9z M24.3,13.9"/>
	</g>
</g>
</svg>
