<?xml version="1.0" encoding="utf-8"?>
<!-- Generator: Adobe Illustrator 18.1.1, SVG Export Plug-In . SVG Version: 6.00 Build 0)  -->
<svg version="1.1" id="Слой_1" xmlns="http://www.w3.org/2000/svg" xmlns:xlink="http://www.w3.org/1999/xlink" x="0px" y="0px"
	 viewBox="0 0 75.3 77.5" enable-background="new 0 0 75.3 77.5" xml:space="preserve">
<g>
	<path fill="#bbbbbb" d="M49,0H30.5c-8.2,0-13.9,1.8-19.1,6C7.5,9.5,5,14.6,5,19.6c0,7.7,5.9,15.9,16.7,15.9c1,0,2.2-0.1,3.2-0.2l-0.1,0.4
		c-0.4,1-0.9,2-0.9,3.6c0,3,1.4,4.9,2.8,6.6L27,46l-0.3,0c-4.5,0.3-12.8,0.9-18.9,4.6C0.6,55,0,61.2,0,63c0,7.2,6.7,14.4,21.7,14.4
		c17.4,0,26.5-9.6,26.5-19.1c0-7-4.1-10.5-8.5-14.2L36,41.3c-1.1-0.9-2.6-2.1-2.6-4.3c0-2.1,1.4-3.5,2.7-4.8l0.1-0.1
		c4-3.1,8.5-6.7,8.5-14.4c0-7.7-4.8-11.7-7.2-13.6h6.1c0.1,0,0.1,0,0.2-0.1l5.3-3.3c0.1-0.1,0.2-0.3,0.2-0.5C49.4,0.1,49.2,0,49,0
		L49,0z M26.6,73.2c-10.6,0-17.7-5-17.7-12.3c0-4.8,2.9-8.3,8.7-10.4c4.6-1.5,10.5-1.6,10.6-1.6c1,0,1.5,0,2.3,0.1
		c7.4,5.3,11,8.1,11,13.3C41.4,69,35.8,73.2,26.6,73.2L26.6,73.2z M26.5,32.6c-8.9,0-12.6-11.7-12.6-18c0-3.2,0.7-5.6,2.2-7.5
		c1.6-2,4.4-3.3,7.1-3.3c8.2,0,12.7,11,12.7,18.6c0,1.2,0,4.8-2.5,7.4C31.7,31.5,28.9,32.6,26.5,32.6L26.5,32.6z M26.5,32.6"/>
	<path fill="#bbbbbb" d="M74.9,36.2h-9.7v-9.7c0-0.2-0.2-0.4-0.4-0.4h-4.2c-0.2,0-0.4,0.2-0.4,0.4v9.7h-9.7c-0.2,0-0.4,0.2-0.4,0.4v4.2
		c0,0.2,0.2,0.4,0.4,0.4h9.7V51c0,0.2,0.2,0.4,0.4,0.4h4.2c0.2,0,0.4-0.2,0.4-0.4v-9.8h9.7c0.2,0,0.4-0.2,0.4-0.4v-4.2
		C75.3,36.4,75.1,36.2,74.9,36.2L74.9,36.2z M74.9,36.2"/>
</g>
</svg>
