<?xml version="1.0" encoding="utf-8"?>
<!-- Generator: Avocode 2.4.5 - http://avocode.com -->
<svg height="7" width="15" xmlns:xlink="http://www.w3.org/1999/xlink" xmlns="http://www.w3.org/2000/svg" viewBox="0 0 15 7">
    <path fill="#b8b8b8" fill-rule="evenodd" d="M 14 7 C 14 7 11 7 11 7 C 11 7 11 5 11 5 C 11 5 12 5 12 5 C 12.36 5 13 4.26 13 4 C 13 4 13 3 13 3 C 13 2.74 12.36 2 12 2 C 12 2 8 2 8 2 C 7.64 2 7 2.74 7 3 C 7 3 7 4 7 4 C 7 4 5 4 5 4 C 5 4 5 1.08 5 1.08 C 5 0.48 5.45 0 6 0 C 6 0 14 0 14 0 C 14.55 0 15 0.48 15 1.08 C 15 1.08 15 5.92 15 5.92 C 15 6.52 14.55 7 14 7 Z M 2 3 C 2 3 2 4 2 4 C 2 4.26 2.64 5 3 5 C 3 5 7 5 7 5 C 7.36 5 8 4.26 8 4 C 8 4 8 3 8 3 C 8 3 10 3 10 3 C 10 3 10 5.92 10 5.92 C 10 6.52 9.55 7 9 7 C 9 7 1 7 1 7 C 0.45 7 0 6.52 0 5.92 C 0 5.92 0 1.08 0 1.08 C 0 0.48 0.45 0 1 0 C 1 0 4 0 4 0 C 4 0 4 2 4 2 C 4 2 3 2 3 2 C 2.64 2 2 2.74 2 3 Z" />
</svg>