<?xml version="1.0" encoding="utf-8"?>
<!-- Generator: Avocode 2.4.5 - http://avocode.com -->
<svg height="14" width="16" xmlns:xlink="http://www.w3.org/1999/xlink" xmlns="http://www.w3.org/2000/svg" viewBox="0 0 16 14">
    <path fill="#aaaaaa" fill-rule="evenodd" d="M 15 10 C 15 10 8 10 8 10 C 7.45 10 7 9.55 7 9 C 7 8.45 7.45 8 8 8 C 8 8 15 8 15 8 C 15.55 8 16 8.45 16 9 C 16 9.55 15.55 10 15 10 Z M 15 6 C 15 6 8 6 8 6 C 7.45 6 7 5.55 7 5 C 7 4.45 7.45 4 8 4 C 8 4 15 4 15 4 C 15.55 4 16 4.45 16 5 C 16 5.55 15.55 6 15 6 Z M 15 2 C 15 2 8 2 8 2 C 7.45 2 7 1.55 7 1 C 7 0.45 7.45 0 8 0 C 8 0 15 0 15 0 C 15.55 0 16 0.45 16 1 C 16 1.55 15.55 2 15 2 Z M 5 14 C 5 14 1 14 1 14 C 0.45 14 0 13.55 0 13 C 0 13 0 9 0 9 C 0 8.45 0.45 8 1 8 C 1 8 5 8 5 8 C 5.55 8 6 8.45 6 9 C 6 9 6 13 6 13 C 6 13.55 5.55 14 5 14 Z M 4 10.67 C 4 10.3 3.7 10 3.33 10 C 3.33 10 2.67 10 2.67 10 C 2.3 10 2 10.3 2 10.67 C 2 10.67 2 11.33 2 11.33 C 2 11.7 2.3 12 2.67 12 C 2.67 12 3.33 12 3.33 12 C 3.7 12 4 11.7 4 11.33 C 4 11.33 4 10.67 4 10.67 Z M 5 6 C 5 6 1 6 1 6 C 0.45 6 0 5.55 0 5 C 0 5 0 1 0 1 C 0 0.45 0.45 0 1 0 C 1 0 5 0 5 0 C 5.55 0 6 0.45 6 1 C 6 1 6 5 6 5 C 6 5.55 5.55 6 5 6 Z M 4 2.67 C 4 2.3 3.7 2 3.33 2 C 3.33 2 2.67 2 2.67 2 C 2.3 2 2 2.3 2 2.67 C 2 2.67 2 3.33 2 3.33 C 2 3.7 2.3 4 2.67 4 C 2.67 4 3.33 4 3.33 4 C 3.7 4 4 3.7 4 3.33 C 4 3.33 4 2.67 4 2.67 Z M 8 12 C 8 12 15 12 15 12 C 15.55 12 16 12.45 16 13 C 16 13.55 15.55 14 15 14 C 15 14 8 14 8 14 C 7.45 14 7 13.55 7 13 C 7 12.45 7.45 12 8 12 Z" />
</svg>