<?xml version="1.0" encoding="utf-8"?>
<!-- Generator: Avocode 2.4.5 - http://avocode.com -->
<svg height="14" width="15" xmlns:xlink="http://www.w3.org/1999/xlink" xmlns="http://www.w3.org/2000/svg" viewBox="0 0 15 14">
    <path fill="#aaaaaa" fill-rule="evenodd" d="M 14 10 C 14 10 7 10 7 10 C 6.45 10 6 9.55 6 9 C 6 8.45 6.45 8 7 8 C 7 8 14 8 14 8 C 14.55 8 15 8.45 15 9 C 15 9.55 14.55 10 14 10 Z M 14 6 C 14 6 7 6 7 6 C 6.45 6 6 5.55 6 5 C 6 4.45 6.45 4 7 4 C 7 4 14 4 14 4 C 14.55 4 15 4.45 15 5 C 15 5.55 14.55 6 14 6 Z M 14 2 C 14 2 7 2 7 2 C 6.45 2 6 1.55 6 1 C 6 0.45 6.45 0 7 0 C 7 0 14 0 14 0 C 14.55 0 15 0.45 15 1 C 15 1.55 14.55 2 14 2 Z M 0 13.01 C 0.7 12.51 1.45 11.94 1.93 11.52 C 2.84 10.73 3.2 10.25 3.2 9.81 C 3.2 9.31 2.73 8.98 2.02 8.98 C 1.48 8.98 0.88 9.14 0.27 9.47 C 0.27 9.47 0.15 8.43 0.15 8.43 C 1.02 8.12 1.63 8.01 2.44 8.01 C 3.15 8.01 3.66 8.14 4.08 8.41 C 4.55 8.72 4.8 9.17 4.8 9.68 C 4.8 10.29 4.5 10.8 3.63 11.66 C 3.07 12.21 2.64 12.56 1.92 13.07 C 1.92 13.07 5.02 13.05 5.02 13.05 C 5.02 13.05 5.02 14 5.02 14 C 5.02 14 0 14 0 14 C 0 14 0 13.01 0 13.01 Z M 2 1 C 2 1 0 1 0 1 C 0 1 2 0 2 0 C 2 0 4 0 4 0 C 4 0 4 6 4 6 C 4 6 2 6 2 6 C 2 6 2 1 2 1 Z M 7 12 C 7 12 14 12 14 12 C 14.55 12 15 12.45 15 13 C 15 13.55 14.55 14 14 14 C 14 14 7 14 7 14 C 6.45 14 6 13.55 6 13 C 6 12.45 6.45 12 7 12 Z" />
</svg>