<?xml version="1.0" encoding="iso-8859-1"?>
<!-- Generator: Adobe Illustrator 16.0.0, SVG Export Plug-In . SVG Version: 6.00 Build 0)  -->
<!DOCTYPE svg PUBLIC "-//W3C//DTD SVG 1.1//EN" "http://www.w3.org/Graphics/SVG/1.1/DTD/svg11.dtd">
<svg version="1.1" id="Capa_1" xmlns="http://www.w3.org/2000/svg" xmlns:xlink="http://www.w3.org/1999/xlink" x="0px" y="0px"
	 width="554.625px" height="554.625px" viewBox="0 0 554.625 554.625" style="enable-background:new 0 0 554.625 554.625;"
	 xml:space="preserve">
<g>
	<g>
		<path d="M248.625,286.875h-38.25v38.25h38.25c11.475,0,19.125-7.65,19.125-19.125S260.1,286.875,248.625,286.875z"/>
		<path d="M267.75,153h95.625L248.625,19.125v114.75C248.625,145.35,258.188,153,267.75,153z"/>
		<path d="M133.875,401.625V267.75c0-32.513,24.862-57.375,57.375-57.375h172.125v-38.25H267.75c-21.038,0-38.25-17.212-38.25-38.25
			V19.125H38.25C17.212,19.125,0,36.337,0,57.375V497.25c0,21.037,17.212,38.25,38.25,38.25h286.875
			c21.037,0,38.25-17.213,38.25-38.25V459H191.25C158.737,459,133.875,434.138,133.875,401.625z"/>
		<path d="M516.375,229.5H191.25c-21.038,0-38.25,17.212-38.25,38.25v133.875c0,21.037,17.212,38.25,38.25,38.25h325.125
			c21.037,0,38.25-17.213,38.25-38.25V267.75C554.625,246.712,537.412,229.5,516.375,229.5z M248.625,344.25h-38.25v57.375H191.25
			V306v-38.25h57.375c21.037,0,38.25,17.213,38.25,38.25S269.662,344.25,248.625,344.25z M344.25,325.125h19.125
			c21.037,0,38.25,17.213,38.25,38.25s-17.213,38.25-38.25,38.25H344.25c-21.037,0-38.25-17.213-38.25-38.25l0,0h19.125l0,0
			c0,9.562,7.65,19.125,19.125,19.125h19.125c11.475,0,19.125-7.65,19.125-19.125s-9.562-19.125-19.125-19.125H344.25
			c-21.037,0-38.25-17.213-38.25-38.25s17.213-38.25,38.25-38.25h19.125c21.037,0,38.25,17.213,38.25,38.25H382.5
			c0-9.562-7.65-19.125-19.125-19.125H344.25c-11.475,0-19.125,7.65-19.125,19.125S334.688,325.125,344.25,325.125z
			 M516.375,363.375c0,21.037-17.213,38.25-38.25,38.25H420.75V267.75h57.375c21.037,0,38.25,17.213,38.25,38.25V363.375z"/>
		<path d="M478.125,286.875h-38.25V382.5h38.25c11.475,0,19.125-7.65,19.125-19.125V306
			C497.25,294.525,489.6,286.875,478.125,286.875z"/>
	</g>
</g>
<g>
</g>
<g>
</g>
<g>
</g>
<g>
</g>
<g>
</g>
<g>
</g>
<g>
</g>
<g>
</g>
<g>
</g>
<g>
</g>
<g>
</g>
<g>
</g>
<g>
</g>
<g>
</g>
<g>
</g>
</svg>
