<?xml version="1.0" encoding="utf-8"?>
<!-- Generator: Avocode 2.4.5 - http://avocode.com -->
<svg height="14" width="15" xmlns:xlink="http://www.w3.org/1999/xlink" xmlns="http://www.w3.org/2000/svg" viewBox="0 0 15 14">
    <path fill="#aaaaaa" fill-rule="evenodd" d="M 14.47 6.31 C 14.47 6.31 8.94 10.7 8.94 10.7 C 8.37 11.17 7.97 11.13 8 10.2 C 8.02 9.59 8.01 8.38 8 7 C 8 7 3 7 3 7 C 3 7 3 12.5 3 12.5 C 3 13.33 2.33 14 1.5 14 C 0.67 14 0 13.33 0 12.5 C 0 12.5 0 5.5 0 5.5 C 0 4.67 0.67 4 1.5 4 C 1.5 4 7.98 4 7.98 4 C 7.97 2.86 7.98 1.8 8 1.03 C 8.03 -0.3 8.46 -0.06 8.75 0.23 C 8.75 0.23 14.45 4.77 14.45 4.77 C 15.25 5.43 15.1 5.78 14.47 6.31 Z" />
</svg>