<?xml version="1.0" encoding="utf-8"?>
<!-- Generator: Avocode 2.4.5 - http://avocode.com -->
<svg height="12" width="10" xmlns:xlink="http://www.w3.org/1999/xlink" xmlns="http://www.w3.org/2000/svg" viewBox="0 0 10 12">
    <path fill="#aaaaaa" fill-rule="evenodd" d="M 9 3 C 9 3 9 2 9 2 C 9 1.59 8.43 1 8 1 C 8 1 7 1 7 1 C 6.57 1 6 1.59 6 2 C 6 2 6 6 6 6 C 6 6 8 6 8 6 C 8 6 8 7 8 7 C 8 7 6 7 6 7 C 6 7 6 10 6 10 C 6 10.41 6.57 11 7 11 C 7 11 8 11 8 11 C 8 11 8 12 8 12 C 8 12 2 12 2 12 C 2 12 2 11 2 11 C 2 11 3 11 3 11 C 3.43 11 4 10.41 4 10 C 4 10 4 7 4 7 C 4 7 2 7 2 7 C 2 7 2 6 2 6 C 2 6 4 6 4 6 C 4 6 4 2 4 2 C 4 1.59 3.43 1 3 1 C 3 1 2 1 2 1 C 1.57 1 1 1.59 1 2 C 1 2 1 3 1 3 C 1 3 0 3 0 3 C 0 3 0 0.75 0 0.75 C 0 0.34 0.34 0 0.77 0 C 0.77 0 9.23 0 9.23 0 C 9.65 0 10 0.34 10 0.75 C 10 0.75 10 3 10 3 C 10 3 9 3 9 3 Z" />
</svg>