<?xml version="1.0" encoding="utf-8"?>
<!-- Generator: Avocode 2.4.5 - http://avocode.com -->
<svg height="14" width="15" xmlns:xlink="http://www.w3.org/1999/xlink" xmlns="http://www.w3.org/2000/svg" viewBox="0 0 15 14">
    <path fill="#aaaaaa" fill-rule="evenodd" d="M 13.5 14 C 12.67 14 12 13.33 12 12.5 C 12 12.5 12 7 12 7 C 12 7 7 7 7 7 C 6.99 8.38 6.98 9.59 7 10.2 C 7.03 11.13 6.63 11.17 6.06 10.7 C 6.06 10.7 0.53 6.31 0.53 6.31 C -0.11 5.78 -0.25 5.43 0.55 4.77 C 0.55 4.77 6.25 0.23 6.25 0.23 C 6.54 -0.06 6.97 -0.3 7 1.03 C 7.02 1.8 7.03 2.86 7.02 4 C 7.02 4 13.5 4 13.5 4 C 14.33 4 15 4.67 15 5.5 C 15 5.5 15 12.5 15 12.5 C 15 13.33 14.33 14 13.5 14 Z" />
</svg>